<?xml version="1.0" encoding="utf-8"?>
<!-- Generator: Adobe Illustrator 24.0.1, SVG Export Plug-In . SVG Version: 6.00 Build 0)  -->
<svg version="1.1" id="12" xmlns="http://www.w3.org/2000/svg" xmlns:xlink="http://www.w3.org/1999/xlink" x="0px" y="0px"
	 viewBox="180 120 480 340" xml:space="preserve">
<style type="text/css">
	.st0{fill:#FFFFFF;}
</style>
<g>
	<g>
		<path class="st0" d="M431.72,208.21c16.65,10.64,29.83,26.89,36.38,47.16c14.93,46.34-10.49,96.04-56.81,110.98
			c-4.03,1.29-8.05,2.19-12.09,2.9c21.41,13.67,48.52,18.05,74.59,9.63c46.33-14.95,71.78-64.65,56.82-110.99
			C516.95,225.55,474.3,200.83,431.72,208.21z"/>
	</g>
	<g>
		<polygon class="st0" points="356.51,391.41 334.12,381.88 313.54,394.87 315.75,370.64 297.01,355.09 320.76,349.72 
			329.72,327.08 342.22,347.95 366.5,349.52 350.5,367.86 		"/>
	</g>
	<g>
		<polygon class="st0" points="342.85,280.49 325.02,272.91 308.68,283.26 310.41,263.98 295.51,251.59 314.39,247.32 321.53,229.3 
			331.47,245.9 350.78,247.16 338.07,261.76 		"/>
	</g>
	<g>
		<polygon class="st0" points="422.93,309.89 407.58,303.37 393.52,312.25 395,295.67 382.19,285.02 398.44,281.36 404.57,265.86 
			413.13,280.16 429.75,281.22 418.81,293.79 		"/>
	</g>
</g>
</svg>
