<?xml version="1.0" encoding="utf-8"?>
<!-- Generator: Adobe Illustrator 24.0.1, SVG Export Plug-In . SVG Version: 6.00 Build 0)  -->
<svg version="1.1" id="0" xmlns="http://www.w3.org/2000/svg" xmlns:xlink="http://www.w3.org/1999/xlink" x="0px" y="0px"
	 viewBox="180 120 480 340" xml:space="preserve">
<style type="text/css">
	.st0{fill:#FFFFFF;}
</style>
<g>
	<path class="st0" d="M421.04,379.56c-42.21,0-76.54-34.34-76.54-76.54c0-42.21,34.33-76.54,76.54-76.54
		c42.22,0,76.55,34.33,76.55,76.54C497.59,345.23,463.26,379.56,421.04,379.56z M421.04,239.83c-34.84,0-63.18,28.34-63.18,63.19
		c0,34.85,28.34,63.19,63.18,63.19c34.86,0,63.19-28.34,63.19-63.19C484.23,268.17,455.9,239.83,421.04,239.83z"/>
	<g>
		<path class="st0" d="M361.45,236.32c1.93,2.22,1.72,5.57-0.49,7.51l0,0c-2.23,1.94-5.59,1.71-7.51-0.49l-39.58-45.21
			c-1.93-2.23-1.7-5.58,0.49-7.49l0,0c2.21-1.93,5.58-1.73,7.51,0.49L361.45,236.32z"/>
	</g>
	<g>
		<path class="st0" d="M426.57,211.87c0.03,2.93-2.34,5.33-5.27,5.35l0,0c-2.94,0.02-5.33-2.33-5.36-5.29l-0.43-60.07
			c-0.02-2.96,2.35-5.34,5.26-5.36l0,0c2.95-0.01,5.33,2.33,5.36,5.29L426.57,211.87z"/>
	</g>
	<g>
		<path class="st0" d="M330.17,288.41c2.94,0.24,5.09,2.81,4.87,5.73l0,0c-0.24,2.93-2.79,5.11-5.74,4.88l-59.88-4.88
			c-2.93-0.25-5.13-2.82-4.86-5.73l0,0c0.23-2.93,2.78-5.1,5.74-4.9L330.17,288.41z"/>
	</g>
	<g>
		<path class="st0" d="M339.81,345.32c2.49-1.58,5.77-0.83,7.34,1.65l0,0c1.56,2.47,0.84,5.77-1.66,7.34l-50.79,32.1
			c-2.5,1.58-5.78,0.84-7.33-1.64l0,0c-1.58-2.49-0.84-5.77,1.66-7.34L339.81,345.32z"/>
	</g>
	<g>
		<path class="st0" d="M385.18,384.92c1.05-2.76,4.11-4.14,6.85-3.11l0,0c2.74,1.04,4.13,4.09,3.12,6.86l-21.17,56.22
			c-1.06,2.75-4.11,4.14-6.83,3.1l0,0c-2.79-1.04-4.16-4.09-3.13-6.85L385.18,384.92z"/>
	</g>
	<g>
		<path class="st0" d="M499.93,356.58c-2.61-1.37-3.61-4.57-2.23-7.17l0,0c1.35-2.6,4.57-3.61,7.18-2.23l53.17,27.95
			c2.61,1.39,3.61,4.6,2.23,7.17l0,0c-1.36,2.62-4.57,3.6-7.19,2.25L499.93,356.58z"/>
	</g>
	<g>
		<path class="st0" d="M512.1,291.75c-2.92,0.34-5.56-1.75-5.89-4.65l0,0c-0.35-2.92,1.73-5.58,4.66-5.91l59.67-6.98
			c2.93-0.33,5.58,1.75,5.89,4.65l0,0c0.36,2.94-1.73,5.57-4.66,5.93L512.1,291.75z"/>
	</g>
	<g>
		<path class="st0" d="M472.95,441.46c0.99,2.77-0.46,5.81-3.24,6.8l0,0c-2.78,0.95-5.8-0.48-6.78-3.25l-19.98-56.68
			c-0.97-2.76,0.49-5.81,3.24-6.77l0,0c2.77-0.98,5.81,0.46,6.78,3.24L472.95,441.46z"/>
	</g>
	<g>
		<path class="st0" d="M482.78,237.79c-1.82,2.32-5.14,2.74-7.47,0.94l0,0c-2.32-1.81-2.72-5.14-0.92-7.46l37-47.37
			c1.81-2.31,5.15-2.74,7.46-0.92l0,0c2.31,1.8,2.72,5.15,0.9,7.48L482.78,237.79z"/>
	</g>
</g>
</svg>
