<?xml version="1.0" encoding="utf-8"?>
<!-- Generator: Adobe Illustrator 24.0.1, SVG Export Plug-In . SVG Version: 6.00 Build 0)  -->
<svg version="1.1" id="5" xmlns="http://www.w3.org/2000/svg" xmlns:xlink="http://www.w3.org/1999/xlink" x="0px" y="0px"
	 viewBox="180 120 480 340" xml:space="preserve">
<style type="text/css">
	.st0{fill:#FFFFFF;}
</style>
<g>
	<g>
		<path class="st0" d="M477.54,302.03c0,31.24-25.36,56.58-56.59,56.58c-31.25,0-56.58-25.34-56.58-56.58
			c0-31.22,25.33-56.58,56.58-56.58C452.18,245.45,477.54,270.81,477.54,302.03z"/>
	</g>
	<g>
		<path class="st0" d="M372.69,248.03c1.57,1.78,1.39,4.5-0.38,6.08l0,0c-1.82,1.57-4.52,1.37-6.09-0.43l-32.07-36.59
			c-1.57-1.81-1.37-4.54,0.42-6.08l0,0c1.77-1.56,4.5-1.4,6.09,0.4L372.69,248.03z"/>
	</g>
	<g>
		<path class="st0" d="M425.45,228.22c0.01,2.39-1.92,4.32-4.29,4.33l0,0c-2.37,0.02-4.32-1.88-4.34-4.27l-0.34-48.65
			c0-2.42,1.91-4.31,4.27-4.36l0,0c2.38,0,4.32,1.89,4.35,4.3L425.45,228.22z"/>
	</g>
	<g>
		<path class="st0" d="M347.34,290.21c2.39,0.21,4.13,2.29,3.96,4.63l0,0c-0.2,2.39-2.26,4.13-4.66,3.95l-48.48-3.95
			c-2.4-0.18-4.16-2.26-3.93-4.63l0,0c0.17-2.37,2.24-4.12,4.62-3.97L347.34,290.21z"/>
	</g>
	<g>
		<path class="st0" d="M355.15,336.31c2.04-1.28,4.7-0.68,5.95,1.34l0,0c1.27,2.02,0.68,4.66-1.33,5.94l-41.13,26
			c-2.01,1.26-4.7,0.68-5.95-1.34l0,0c-1.28-2.01-0.68-4.66,1.36-5.94L355.15,336.31z"/>
	</g>
	<g>
		<path class="st0" d="M391.91,368.37c0.84-2.22,3.32-3.36,5.55-2.52l0,0c2.21,0.84,3.33,3.33,2.52,5.56l-17.15,45.54
			c-0.85,2.22-3.34,3.36-5.52,2.51l0,0c-2.26-0.84-3.37-3.31-2.54-5.55L391.91,368.37z"/>
	</g>
	<g>
		<path class="st0" d="M484.83,345.44c-2.12-1.13-2.91-3.74-1.81-5.83l0,0c1.12-2.11,3.71-2.9,5.83-1.79l43.05,22.64
			c2.11,1.11,2.93,3.72,1.8,5.8l0,0c-1.09,2.13-3.7,2.93-5.82,1.82L484.83,345.44z"/>
	</g>
	<g>
		<path class="st0" d="M494.7,292.91c-2.36,0.29-4.5-1.43-4.78-3.77l0,0c-0.27-2.34,1.43-4.5,3.79-4.77l48.3-5.68
			c2.41-0.26,4.52,1.43,4.8,3.8l0,0c0.27,2.37-1.43,4.5-3.79,4.79L494.7,292.91z"/>
	</g>
	<g>
		<path class="st0" d="M463,414.18c0.78,2.23-0.38,4.7-2.64,5.5l0,0c-2.23,0.76-4.7-0.39-5.48-2.64l-16.19-45.9
			c-0.8-2.23,0.38-4.7,2.64-5.47l0,0c2.23-0.81,4.69,0.35,5.5,2.61L463,414.18z"/>
	</g>
	<g>
		<path class="st0" d="M470.95,249.22c-1.48,1.87-4.16,2.22-6.04,0.76l0,0c-1.88-1.46-2.22-4.18-0.75-6.05l29.96-38.35
			c1.47-1.88,4.16-2.22,6.06-0.74l0,0c1.84,1.46,2.19,4.18,0.72,6.05L470.95,249.22z"/>
	</g>
</g>
</svg>
