<?xml version="1.0" encoding="utf-8"?>
<!-- Generator: Adobe Illustrator 24.0.1, SVG Export Plug-In . SVG Version: 6.00 Build 0)  -->
<svg version="1.1" id="14" xmlns="http://www.w3.org/2000/svg" xmlns:xlink="http://www.w3.org/1999/xlink" x="0px" y="0px"
	 viewBox="180 120 480 340" xml:space="preserve">
<style type="text/css">
	.st0{fill:#FFFFFF;}
</style>
<g>
	<path class="st0" d="M337.71,343.55c-2.31,35.92-16.47,54.15-16.47,54.15c-1.18,2.24-1.88,4.72-1.88,7.35
		c0,9.52,8.63,17.23,19.24,17.23c10.64,0,19.23-7.71,19.23-17.23c0-2.63-0.67-5.1-1.84-7.35
		C337.39,372.76,338.6,329.8,337.71,343.55z"/>
	<path class="st0" d="M433.27,367.84c-17.06-22.83-15.92-62.16-16.73-49.56c-2.14,32.86-15.07,49.56-15.07,49.56
		c-1.08,2.06-1.7,4.33-1.7,6.73c0,8.71,7.86,15.76,17.59,15.76c9.72,0,17.6-7.05,17.6-15.76c0-2.4-0.63-4.67-1.7-6.73H433.27z"/>
	<path class="st0" d="M490.93,399.6c-10.73-14.36-10.02-39.1-10.51-31.17c-1.36,20.68-9.5,31.17-9.5,31.17
		c-0.68,1.31-1.07,2.73-1.07,4.24c0,5.48,4.97,9.93,11.07,9.93c6.13,0,11.08-4.44,11.08-9.93c0-1.5-0.38-2.93-1.07-4.24H490.93z"/>
	<path class="st0" d="M602.59,202.79c-10.78-33.43-44.47-52.97-78.11-47.14c13.15,8.41,23.59,21.24,28.74,37.25
		c5.69,17.63,3.91,35.85-3.49,51.35c-7.81-21.04-28.05-36.1-51.78-36.1c-10.43,0-20.4,2.88-29.04,8.27
		c-5.35-31.43-34.18-54.97-67.91-53.11c-32.11,1.6-57.53,25.08-61.69,55.22c-5.8-2.06-11.78-3.1-17.87-3.1
		c-30.45,0-55.25,24.77-55.25,55.23c0,0.65,0.04,1.3,0.07,1.99c-15.42,4.21-37.56,13.13-37.52,44.67
		c0.03,23.44,19.51,43.57,46.04,44.83l8.14-12.55c-0.96,0.03-2.06,0.05-2.82,0.09l-1.97,0.05c-20.13,0-36.52-14.55-36.52-32.43
		c-0.03-21.31,11.6-28.21,33.07-33.54l4.84-1.84l0.14-4.88l-0.25-2.61c-0.17-1.25-0.34-2.5-0.34-3.78c0-23.38,19-42.39,42.38-42.39
		c7.04,0,13.98,1.88,20.57,5.58l9.77,5.47l-0.21-11.18c-0.47-27.73,21.53-50.56,50.08-51.98l2.78-0.08
		c28.06,0,51.11,21.27,52.44,48.47c0.07,0.98,0,1.94-0.11,4.43l-0.58,16.51l11.58-11.79c8.05-8.18,18.78-12.69,30.18-12.69
		c21.94,0,40.04,16.75,42.18,38.13c-8.12,9.64-18.9,17.25-31.78,21.4c-3.16,1.04-6.33,1.74-9.53,2.3
		c16.9,10.81,38.32,14.24,58.91,7.61c1.86-0.6,3.65-1.32,5.42-2.06c6.39,5.74,10.5,13.53,10.93,22.23
		c0.77,15.51-9.93,33.15-26.16,38.27l4.29,11.95c20.46-6.81,35.83-27.97,34.69-50.85c-0.53-10.67-4.95-20.35-11.93-27.95
		C600.22,265.18,612.37,233.11,602.59,202.79z"/>
</g>
</svg>
