<?xml version="1.0" encoding="utf-8"?>
<!-- Generator: Adobe Illustrator 24.0.1, SVG Export Plug-In . SVG Version: 6.00 Build 0)  -->
<svg version="1.1" id="15" xmlns="http://www.w3.org/2000/svg" xmlns:xlink="http://www.w3.org/1999/xlink" x="0px" y="0px"
	 viewBox="180 120 480 340" xml:space="preserve">
<style type="text/css">
	.st0{fill:#FFFFFF;}
</style>
<g>
	<polygon class="st0" points="453.26,285.75 447.51,285.75 387.88,381 457.92,381.11 385.82,492.33 383.77,495.52 488.1,369.04 
		412.89,368.66 	"/>
	<path class="st0" d="M343.68,362.51c-21.32-28.57-19.92-77.78-20.94-62.01c-2.66,41.12-18.86,62.01-18.86,62.01
		c-1.34,2.55-2.14,5.38-2.14,8.4c0,10.89,9.86,19.72,22.02,19.72c12.18,0,22.03-8.83,22.03-19.72c0-3.02-0.79-5.85-2.13-8.4H343.68z
		"/>
	<path class="st0" d="M413.24,297.48c0-2.64-0.68-5.12-1.86-7.35h0.02c-18.62-24.96-17.38-67.9-18.28-54.15
		c-2.32,35.92-16.47,54.15-16.47,54.15c-1.18,2.23-1.87,4.71-1.87,7.35c0,9.51,8.61,17.2,19.24,17.2
		C404.64,314.68,413.24,306.99,413.24,297.48z"/>
	<path class="st0" d="M474.48,275.54c-1.35,20.68-9.5,31.18-9.5,31.18c-0.66,1.29-1.06,2.72-1.06,4.25c0,5.45,4.96,9.91,11.08,9.91
		c6.12,0,11.08-4.45,11.08-9.91c0-1.53-0.39-2.96-1.07-4.25H485C474.27,292.36,474.98,267.59,474.48,275.54z"/>
	<path class="st0" d="M602.59,153.15c-10.8-33.43-44.47-52.97-78.1-47.13c13.15,8.4,23.56,21.23,28.73,37.24
		c5.69,17.65,3.9,35.88-3.5,51.38c-7.79-21.06-28.03-36.14-51.77-36.14c-10.42,0-20.41,2.87-29.04,8.26
		c-5.36-31.44-34.18-54.96-67.92-53.12c-32.11,1.61-57.54,25.1-61.69,55.22c-5.8-2.04-11.79-3.08-17.87-3.08
		c-30.46,0-55.25,24.77-55.25,55.23c0,0.65,0.02,1.29,0.08,2.01c-15.42,4.19-37.58,13.11-37.53,44.66
		c0.03,23.44,19.51,43.58,46.05,44.82l8.11-12.55c-0.94,0.04-2.04,0.08-2.8,0.11l-1.98,0.03c-20.13,0-36.52-14.54-36.53-32.41
		c-0.03-21.32,11.62-28.23,33.09-33.56l4.83-1.84l0.14-4.86l-0.24-2.63c-0.18-1.25-0.35-2.49-0.35-3.77
		c0-23.38,19.01-42.39,42.38-42.39c7.05,0,13.97,1.87,20.57,5.58l9.75,5.47l-0.2-11.2c-0.47-27.73,21.52-50.55,50.07-51.95
		l2.77-0.09c28.07,0,51.12,21.26,52.47,48.46c0.04,0.99,0,1.96-0.12,4.44l-0.59,16.5l11.59-11.79c8.05-8.16,18.76-12.69,30.19-12.69
		c21.94,0,40.04,16.77,42.17,38.17c-8.11,9.63-18.89,17.23-31.76,21.39c-3.18,1.02-6.37,1.72-9.56,2.29
		c16.92,10.8,38.33,14.24,58.91,7.6c1.86-0.6,3.65-1.32,5.42-2.06c6.4,5.74,10.5,13.54,10.93,22.25
		c0.78,15.5-9.91,33.15-26.14,38.26l4.29,11.96c20.47-6.81,35.83-27.97,34.69-50.87c-0.52-10.67-4.95-20.35-11.92-27.94
		C600.23,215.54,612.38,183.47,602.59,153.15z"/>
</g>
</svg>
