<?xml version="1.0" encoding="utf-8"?>
<!-- Generator: Adobe Illustrator 24.0.1, SVG Export Plug-In . SVG Version: 6.00 Build 0)  -->
<svg version="1.1" id="11" xmlns="http://www.w3.org/2000/svg" xmlns:xlink="http://www.w3.org/1999/xlink" x="0px" y="0px"
	 viewBox="180 120 480 340" xml:space="preserve">
<style type="text/css">
	.st0{fill:#FFFFFF;}
</style>
<g>
	<g>
		<path class="st0" d="M565.13,199.4c0.16-1.62,0.23-3.23,0.23-4.85c0-30.45-24.78-55.23-55.25-55.23
			c-10.43,0-20.39,2.88-29.04,8.27c-5.35-31.43-34.18-54.96-67.91-53.12c-32.11,1.61-57.52,25.09-61.7,55.23
			c-5.79-2.07-11.8-3.11-17.86-3.11c-30.45,0-55.25,24.77-55.25,55.23c0,0.66,0.01,1.31,0.08,2.01
			c-15.43,4.2-37.57,13.12-37.53,44.67c0.04,23.44,19.51,43.55,46.05,44.82l8.13-12.55c-0.97,0.03-2.04,0.06-2.82,0.1l-1.98,0.05
			c-20.12,0-36.52-14.55-36.54-32.44c-0.01-21.3,11.6-28.22,33.09-33.55l4.84-1.83l0.14-4.87l-0.25-2.63
			c-0.18-1.24-0.34-2.48-0.34-3.77c0-23.37,19-42.38,42.38-42.38c7.04,0,13.96,1.88,20.57,5.57l9.75,5.47l-0.2-11.17
			c-0.47-27.74,21.53-50.57,50.08-51.98l2.77-0.08c28.08,0,51.11,21.28,52.46,48.47c0.06,0.97,0,1.93-0.14,4.42l-0.58,16.51
			l11.6-11.79c8.04-8.18,18.78-12.69,30.18-12.69c23.37,0,42.4,19.02,42.4,42.38c0,2.92-0.31,5.72-0.87,8.47l-1.31,6.47l6.49,1.13
			c16.55,2.9,28.64,15.73,29.41,31.19c0.78,15.51-9.91,33.15-26.13,38.26l4.29,11.96c20.47-6.8,35.82-27.96,34.67-50.85
			C598.1,221.66,584.47,205.24,565.13,199.4z"/>
	</g>
	<g>
		<path class="st0" d="M330.16,329.79h0.04c-16.39-21.95-15.3-59.74-16.11-47.65c-2.04,31.61-14.49,47.65-14.49,47.65l0,0
			c-1.02,1.97-1.63,4.16-1.63,6.46c0,8.38,7.58,15.16,16.93,15.16c9.35,0,16.91-6.78,16.91-15.16
			C331.81,333.95,331.2,331.76,330.16,329.79z"/>
	</g>
	<g>
		<path class="st0" d="M389.59,287.46L389.59,287.46c-14.11-18.92-13.17-51.5-13.86-41.07c-1.77,27.25-12.5,41.07-12.5,41.07l0,0
			c-0.9,1.7-1.41,3.59-1.41,5.58c0,7.21,6.53,13.07,14.6,13.07c8.06,0,14.56-5.85,14.56-13.07
			C390.98,291.05,390.47,289.16,389.59,287.46z"/>
	</g>
	<g>
		<path class="st0" d="M480.35,329.92h0.01c-10.6-14.17-9.88-38.6-10.39-30.78c-1.32,20.43-9.36,30.78-9.36,30.78l0,0
			c-0.66,1.28-1.06,2.67-1.06,4.19c0,5.4,4.88,9.78,10.93,9.78c6.02,0,10.92-4.38,10.92-9.78
			C481.4,332.6,481.02,331.21,480.35,329.92z"/>
	</g>
	<g>
		<path class="st0" d="M521.45,269.7h0.02c-12.25-16.4-11.43-44.69-12.01-35.63c-1.55,23.64-10.85,35.63-10.85,35.63l0,0
			c-0.77,1.48-1.22,3.11-1.22,4.84c0,6.26,5.64,11.34,12.64,11.34c6.98,0,12.64-5.08,12.64-11.34
			C522.67,272.81,522.23,271.18,521.45,269.7z"/>
	</g>
	<g>
		<polygon class="st0" points="372.58,485 374.64,481.82 446.75,370.59 376.69,370.47 436.33,275.24 442.1,275.24 401.73,358.13 
			476.92,358.51 		"/>
	</g>
</g>
</svg>
