<?xml version="1.0" encoding="utf-8"?>
<!-- Generator: Adobe Illustrator 24.0.1, SVG Export Plug-In . SVG Version: 6.00 Build 0)  -->
<svg version="1.1" id="3" xmlns="http://www.w3.org/2000/svg" xmlns:xlink="http://www.w3.org/1999/xlink" x="0px" y="0px"
	 viewBox="180 120 480 340" xml:space="preserve">
<style type="text/css">
	.st0{fill:#FFFFFF;}
</style>
<g>
	<g>
		<path class="st0" d="M587.62,270.21c-11.25,0-17.14-6.35-21.87-11.46c-4.45-4.8-7.96-8.6-15.32-8.6c-7.35,0-10.88,3.8-15.32,8.62
			c-4.76,5.09-10.63,11.44-21.88,11.44c-11.25,0-17.11-6.35-21.84-11.46c-4.45-4.8-7.97-8.6-15.3-8.6c-7.34,0-10.86,3.8-15.31,8.6
			c-4.72,5.1-10.6,11.46-21.83,11.46c-11.23,0-17.11-6.35-21.84-11.46c-4.45-4.8-7.97-8.6-15.3-8.6c-7.32,0-10.83,3.8-15.26,8.6
			c-4.72,5.1-10.6,11.46-21.81,11.46c-11.22,0-17.09-6.37-21.8-11.46c-4.43-4.8-7.92-8.6-15.23-8.6c-7.34,0-10.85,3.8-15.3,8.62
			c-4.73,5.09-10.58,11.44-21.8,11.44c-11.21,0-17.09-6.35-21.83-11.46c-4.44-4.8-7.95-8.6-15.29-8.6v-8.9
			c11.22,0,17.09,6.35,21.83,11.47c4.43,4.79,7.95,8.59,15.29,8.59c7.32,0,10.83-3.8,15.27-8.59c4.73-5.12,10.61-11.47,21.83-11.47
			c11.2,0,17.06,6.35,21.77,11.46c4.44,4.8,7.96,8.6,15.27,8.6c7.32,0,10.83-3.8,15.26-8.59c4.72-5.12,10.6-11.47,21.81-11.47
			c11.23,0,17.11,6.35,21.84,11.47c4.45,4.79,7.96,8.59,15.3,8.59c7.34,0,10.85-3.8,15.3-8.59c4.73-5.12,10.61-11.47,21.84-11.47
			c11.23,0,17.11,6.35,21.84,11.47c4.45,4.79,7.96,8.59,15.3,8.59c7.35,0,10.88-3.8,15.33-8.6c4.76-5.1,10.62-11.46,21.87-11.46
			c11.24,0,17.13,6.35,21.86,11.46c4.45,4.8,7.99,8.6,15.34,8.6V270.21z"/>
	</g>
	<g>
		<path class="st0" d="M587.62,310.5c-11.25,0-17.14-6.37-21.87-11.47c-4.45-4.82-7.96-8.6-15.32-8.6c-7.35,0-10.88,3.78-15.32,8.6
			c-4.74,5.12-10.63,11.47-21.88,11.47c-11.25,0-17.11-6.35-21.84-11.47c-4.45-4.82-7.97-8.6-15.3-8.6c-7.34,0-10.86,3.78-15.31,8.6
			c-4.72,5.12-10.6,11.47-21.83,11.47c-11.23,0-17.11-6.35-21.84-11.47c-4.45-4.82-7.97-8.6-15.3-8.6c-7.32,0-10.83,3.78-15.26,8.6
			c-4.72,5.1-10.6,11.47-21.81,11.47c-11.22,0-17.09-6.37-21.8-11.49c-4.43-4.8-7.92-8.58-15.23-8.58c-7.34,0-10.85,3.81-15.3,8.6
			c-4.73,5.12-10.58,11.47-21.8,11.47c-11.21,0-17.09-6.37-21.83-11.47c-4.44-4.82-7.95-8.6-15.29-8.6v-8.9
			c11.22,0,17.09,6.37,21.83,11.46c4.45,4.82,7.95,8.62,15.29,8.62c7.32,0,10.83-3.8,15.27-8.6c4.73-5.1,10.61-11.47,21.83-11.47
			c11.2,0,17.06,6.34,21.77,11.46c4.44,4.82,7.96,8.62,15.27,8.62c7.32,0,10.83-3.8,15.26-8.62c4.72-5.09,10.6-11.46,21.81-11.46
			c11.23,0,17.11,6.34,21.84,11.46c4.45,4.82,7.96,8.62,15.3,8.62c7.34,0,10.85-3.8,15.3-8.62c4.73-5.12,10.61-11.46,21.84-11.46
			c11.23,0,17.11,6.34,21.84,11.46c4.45,4.82,7.96,8.62,15.3,8.62c7.35,0,10.88-3.8,15.33-8.62c4.73-5.12,10.62-11.46,21.87-11.46
			c11.24,0,17.13,6.34,21.86,11.46c4.45,4.8,7.99,8.62,15.34,8.62V310.5z"/>
	</g>
	<g>
		<path class="st0" d="M587.62,354.46c-11.25,0-17.14-6.35-21.87-11.46c-4.45-4.8-7.96-8.6-15.32-8.6c-7.35,0-10.88,3.8-15.32,8.62
			c-4.76,5.09-10.63,11.44-21.88,11.44c-11.25,0-17.11-6.35-21.84-11.46c-4.45-4.8-7.97-8.6-15.3-8.6c-7.34,0-10.86,3.8-15.31,8.6
			c-4.72,5.1-10.6,11.46-21.83,11.46c-11.23,0-17.11-6.35-21.84-11.46c-4.45-4.8-7.97-8.6-15.3-8.6c-7.32,0-10.83,3.8-15.26,8.6
			c-4.72,5.1-10.6,11.46-21.81,11.46c-11.22,0-17.09-6.38-21.8-11.46c-4.43-4.8-7.92-8.6-15.23-8.6c-7.34,0-10.85,3.8-15.3,8.62
			c-4.73,5.09-10.58,11.44-21.8,11.44c-11.21,0-17.09-6.35-21.83-11.46c-4.44-4.8-7.95-8.6-15.29-8.6v-8.9
			c11.22,0,17.09,6.35,21.83,11.46c4.43,4.82,7.95,8.6,15.29,8.6c7.32,0,10.83-3.78,15.27-8.6c4.73-5.1,10.61-11.46,21.83-11.46
			c11.2,0,17.06,6.35,21.77,11.44c4.44,4.83,7.96,8.62,15.27,8.62c7.32,0,10.83-3.78,15.26-8.6c4.72-5.1,10.6-11.46,21.81-11.46
			c11.23,0,17.11,6.35,21.84,11.46c4.45,4.82,7.96,8.6,15.3,8.6c7.34,0,10.85-3.78,15.3-8.6c4.73-5.1,10.61-11.46,21.84-11.46
			c11.23,0,17.11,6.35,21.84,11.46c4.45,4.82,7.96,8.6,15.3,8.6c7.35,0,10.88-3.78,15.33-8.62c4.76-5.09,10.62-11.44,21.87-11.44
			c11.24,0,17.13,6.35,21.86,11.44c4.45,4.83,7.99,8.62,15.34,8.62V354.46z"/>
	</g>
</g>
</svg>
