<?xml version="1.0" encoding="utf-8"?>
<!-- Generator: Adobe Illustrator 24.0.1, SVG Export Plug-In . SVG Version: 6.00 Build 0)  -->
<svg version="1.1" id="7" xmlns="http://www.w3.org/2000/svg" xmlns:xlink="http://www.w3.org/1999/xlink" x="0px" y="0px"
	 viewBox="180 120 480 340" xml:space="preserve">
<style type="text/css">
	.st0{fill:#FFFFFF;}
</style>
<g>
	<g>
		<path class="st0" d="M565.13,262.41c0.14-1.63,0.22-3.24,0.22-4.85c0-30.45-24.79-55.23-55.25-55.23
			c-10.42,0-20.38,2.88-29.04,8.28c-5.37-31.44-34.18-54.97-67.91-53.11c-32.1,1.59-57.53,25.09-61.7,55.22
			c-5.81-2.06-11.78-3.11-17.87-3.11c-30.46,0-55.23,24.78-55.23,55.24c0,0.66,0.01,1.31,0.07,2c-15.43,4.2-37.55,13.13-37.53,44.67
			c0.02,23.44,19.51,43.56,46.05,44.82l8.13-12.54c-0.96,0.02-2.07,0.04-2.82,0.09l-1.98,0.05c-20.13,0-36.52-14.55-36.53-32.44
			c-0.02-21.31,11.59-28.22,33.09-33.54l4.83-1.84l0.14-4.88l-0.24-2.62c-0.17-1.24-0.36-2.5-0.36-3.78
			c0-23.38,19.03-42.38,42.38-42.38c7.05,0,13.98,1.87,20.58,5.57l9.75,5.47l-0.2-11.19c-0.48-27.73,21.53-50.56,50.07-51.98
			l2.78-0.08c28.06,0,51.11,21.28,52.45,48.47c0.06,0.98,0,1.93-0.14,4.43l-0.58,16.52l11.61-11.79
			c8.03-8.18,18.76-12.69,30.17-12.69c23.38,0,42.4,19.02,42.4,42.38c0,2.9-0.31,5.72-0.87,8.47l-1.3,6.46l6.47,1.13
			c16.56,2.9,28.65,15.73,29.41,31.18c0.78,15.52-9.93,33.15-26.14,38.26l4.28,11.97c20.49-6.81,35.83-27.97,34.7-50.86
			C598.1,284.66,584.47,268.23,565.13,262.41z"/>
	</g>
	<g>
		<path class="st0" d="M367.46,395.27h0.02c-18.63-24.95-17.4-67.91-18.28-54.16c-2.34,35.93-16.47,54.16-16.47,54.16l0,0
			c-1.18,2.23-1.87,4.71-1.87,7.35c0,9.51,8.62,17.22,19.22,17.22c10.63,0,19.24-7.71,19.24-17.22
			C369.32,399.98,368.62,397.51,367.46,395.27z"/>
	</g>
	<g>
		<path class="st0" d="M440.86,359.58L440.86,359.58c-17.04-22.83-15.89-62.15-16.73-49.56c-2.11,32.86-15.07,49.56-15.07,49.56l0,0
			c-1.08,2.05-1.69,4.33-1.69,6.73c0,8.7,7.86,15.76,17.6,15.76c9.69,0,17.59-7.06,17.59-15.76
			C442.56,363.91,441.94,361.63,440.86,359.58z"/>
	</g>
	<g>
		<path class="st0" d="M514.04,388.43L514.04,388.43c-10.71-14.37-10-39.11-10.51-31.19c-1.36,20.69-9.49,31.19-9.49,31.19l0,0
			c-0.71,1.29-1.09,2.72-1.09,4.23c0,5.49,4.96,9.93,11.08,9.93c6.09,0,11.08-4.44,11.08-9.93
			C515.12,391.15,514.74,389.72,514.04,388.43z"/>
	</g>
</g>
</svg>
