<?xml version="1.0" encoding="utf-8"?>
<!-- Generator: Adobe Illustrator 24.0.1, SVG Export Plug-In . SVG Version: 6.00 Build 0)  -->
<svg version="1.1" id="15" xmlns="http://www.w3.org/2000/svg" xmlns:xlink="http://www.w3.org/1999/xlink" x="0px" y="0px"
	 viewBox="0 0 841.89 595.28" style="enable-background:new 0 0 841.89 595.28;" xml:space="preserve">
<style type="text/css">
	.st0{fill:#FFFFFF;}
</style>
<g>
	<path class="st0" d="M573.02,247.02c20.86-17.7,30.17-46.84,21.24-74.49c-10.78-33.43-44.45-52.97-78.09-47.14
		c13.15,8.41,23.56,21.23,28.72,37.26c3.91,12.12,4.26,24.51,1.73,36.12c-10.04-10.27-24.02-16.68-39.49-16.68
		c-10.44,0-20.4,2.88-29.04,8.28c-5.36-31.45-34.19-54.98-67.92-53.12c-32.1,1.6-57.52,25.09-61.7,55.23
		c-5.79-2.07-11.79-3.11-17.85-3.11c-30.44,0-55.25,24.76-55.25,55.23c0,0.66,0.02,1.32,0.07,2.01
		c-15.42,4.2-37.55,13.12-37.51,44.67c0.03,23.44,19.5,43.55,46.04,44.81l8.14-12.54c-0.98,0.02-2.05,0.05-2.82,0.08l-1.98,0.06
		c-20.12,0-36.51-14.56-36.53-32.44c-0.02-21.3,11.6-28.23,33.09-33.55l4.83-1.84l0.14-4.88l-0.24-2.62
		c-0.17-1.24-0.35-2.49-0.35-3.78c0-23.36,19.01-42.38,42.38-42.38c7.04,0,13.96,1.88,20.56,5.58l9.75,5.47l-0.19-11.18
		c-0.49-27.73,21.52-50.57,50.08-51.98l2.76-0.08c28.1,0,51.11,21.28,52.47,48.48c0.05,0.96,0,1.93-0.14,4.42l-0.58,16.51
		l11.59-11.79c8.04-8.19,18.78-12.7,30.19-12.7c14.34,0,27.03,7.19,34.7,18.13c-7.86,17.09-22.49,30.99-41.8,37.21
		c-3.17,1.04-6.35,1.73-9.55,2.29c16.92,10.82,38.32,14.26,58.92,7.61c3.99-1.29,7.75-2.96,11.33-4.86
		c12.9,4.82,21.85,16.04,22.5,29.25c0.78,15.51-9.91,33.14-26.13,38.26l4.3,11.96c20.47-6.81,35.81-27.96,34.67-50.86
		C595.3,268.36,586.39,254.85,573.02,247.02z"/>
	<rect x="310.42" y="327.19" class="st0" width="3.71" height="3.71"/>
	<path class="st0" d="M332.91,356.76l0.76-4.87l5.01,5.01l0.1,6.16l1.81-5.45l5.79-2.14h-6.17l-5.03-4.84l4.85-1.4l-2.85-3.72h7.09
		l4.37,4.66l-2.38-5.69l2.38-5.38l-4.37,4.54h-7.09l2.55-4l-4.56-0.85l5.03-5.1h6.17l-5.65-2.04l-2.15-5.65v6.27l-4.9,5.12
		l-0.76-4.86l-4.08,2.78v-6.92l4.47-4.66l-5.33,2.66l-5.59-2.45l4.47,4.45v6.92l-4.16-2.51l-0.68,4.59l-5.05-5.12V326l-1.94,5.65
		l-5.82,2.24h6.28l5.01,4.91l-5.16,1.12l3.18,3.72h-7.09l-4.49-4.54l2.16,5.56l-2.16,5.51l4.49-4.66h7.09l-3.18,4.13l5.16,0.82
		l-5.01,5.01h-6.28l5.82,2.01l1.88,5.58l0.07-6.16l4.85-4.84l0.87,5l4.16-3.1v7.13l-4.47,4.36l5.45-2.4l5.35,2.4l-4.35-4.36v-7.13
		L332.91,356.76z M333,348.58l-2.85-3.07h4.37L333,348.58z M333.18,340.8l1.08,2.85h-4.1L333.18,340.8z M328.93,338.14l2.93,1.22
		l-2.93,2.84V338.14z M328.93,346.96l2.93,2.83l-2.93,1.44V346.96z M322.38,340.8l3.05,2.85h-4.08L322.38,340.8z M322.57,348.58
		l-1.23-3.07h4.08L322.57,348.58z M326.85,351.12L324.1,350l2.75-3.04V351.12z M326.85,342.2l-2.75-2.84l2.75-1.22V342.2z"/>
	<rect x="341.21" y="358.13" class="st0" width="3.72" height="3.68"/>
	<polygon class="st0" points="325.11,366.73 327.75,369.35 330.4,366.73 327.75,364.1 	"/>
	<polygon class="st0" points="327.63,319.5 325.01,322.11 327.63,324.74 330.28,322.11 	"/>
	<rect x="341.5" y="327.19" class="st0" width="3.7" height="3.71"/>
	<polygon class="st0" points="352.44,344.53 349.8,341.93 347.16,344.53 349.8,347.15 	"/>
	<polygon class="st0" points="305.4,342.01 302.78,344.66 305.42,347.23 308.02,344.66 	"/>
	<rect x="310.61" y="358.13" class="st0" width="3.72" height="3.68"/>
	<rect x="459.66" y="297.15" class="st0" width="4.78" height="4.81"/>
	<path class="st0" d="M475.17,346.76l7.07-3.1l6.94,3.1l-5.65-5.65v-9.23l5.33,3.62l0.97-6.31l6.46,6.49l0.14,8l2.36-7.07l7.5-2.79
		h-8.01l-6.51-6.25l6.27-1.84l-3.68-4.82h9.19l5.67,6.06l-3.09-7.38l3.09-6.99l-5.67,5.89h-9.19l3.31-5.17l-5.9-1.1l6.51-6.61h8.01
		l-7.34-2.66l-2.77-7.33v8.12l-6.36,6.64l-0.97-6.31l-5.33,3.61v-8.96l5.81-6.05l-6.93,3.45l-7.23-3.18l5.8,5.77v8.96l-5.39-3.25
		l-0.89,5.95l-6.52-6.64v-8.12l-2.54,7.33l-7.57,2.91h8.14l6.5,6.37l-6.69,1.47l4.11,4.81h-9.21l-5.77-5.89l2.78,7.2l-2.78,7.17
		l5.77-6.06h9.21l-4.11,5.36l6.69,1.06l-6.5,6.5h-8.14l7.57,2.61l2.43,7.26l0.11-8l6.28-6.26l1.13,6.46l5.39-4.01v9.23
		L475.17,346.76z M488.95,324.89l-3.73-3.98h5.67L488.95,324.89z M489.17,314.8l1.38,3.69h-5.33L489.17,314.8z M483.65,311.35
		l3.8,1.58l-3.8,3.69V311.35z M483.65,322.78l3.8,3.68l-3.8,1.85V322.78z M480.96,311.35v5.27l-3.56-3.69L480.96,311.35z
		 M475.17,314.8l3.94,3.69h-5.29L475.17,314.8z M475.42,324.89l-1.6-3.98h5.29L475.42,324.89z M477.4,326.72l3.56-3.94v5.42
		L477.4,326.72z"/>
	<rect x="459.87" y="337.28" class="st0" width="4.84" height="4.77"/>
	<polygon class="st0" points="485.53,348.44 482.13,345.03 478.7,348.44 482.13,351.81 	"/>
	<polygon class="st0" points="456.53,319.8 453.12,316.38 449.73,319.8 453.16,323.15 	"/>
	<rect x="499.57" y="337.28" class="st0" width="4.82" height="4.77"/>
	<polygon class="st0" points="510.71,316.27 507.31,319.64 510.71,323.04 514.14,319.64 	"/>
	<rect x="499.93" y="297.15" class="st0" width="4.81" height="4.81"/>
	<polygon class="st0" points="481.97,287.19 478.58,290.57 481.97,293.99 485.39,290.57 	"/>
	<polygon class="st0" points="417.81,365.92 415.44,368.27 417.81,370.64 420.18,368.27 	"/>
	<rect x="430.3" y="372.85" class="st0" width="3.33" height="3.34"/>
	<path class="st0" d="M436.73,393.56l-2.14-5.15l2.14-4.83l-3.94,4.07h-6.4l2.33-3.58l-4.11-0.77l4.53-4.58h5.56l-5.11-1.87
		l-1.92-5.08v5.65l-4.41,4.6l-0.69-4.39l-3.69,2.51v-6.23l4.04-4.19l-4.79,2.39l-5.05-2.2l4.04,4v6.23l-3.75-2.26l-0.6,4.14
		l-4.55-4.6v-5.65l-1.74,5.08l-5.25,2.03h5.63l4.52,4.42l-4.63,1.02l2.84,3.33h-6.4l-4.02-4.07l1.94,5l-1.94,4.98l4.02-4.21h6.4
		l-2.84,3.71l4.63,0.74l-4.52,4.51h-5.63l5.25,1.81l1.69,5.04l0.05-5.56l4.37-4.35l0.78,4.5l3.75-2.8v6.42l-4.04,3.91l4.92-2.13
		l4.83,2.13l-3.94-3.91v-6.42l3.69,2.52l0.69-4.38l4.48,4.51l0.11,5.56l1.63-4.92l5.22-1.94h-5.56l-4.53-4.35l4.35-1.27l-2.58-3.34
		h6.4L436.73,393.56z M413.07,385.09l2.75,2.55h-3.68L413.07,385.09z M413.27,392.11l-1.13-2.77h3.68L413.27,392.11z M417.12,394.4
		l-2.49-1.03l2.49-2.73V394.4z M417.12,386.36l-2.49-2.55l2.49-1.09V386.36z M422.82,385.09l0.94,2.55h-3.69L422.82,385.09z
		 M418.99,382.71l2.61,1.09l-2.61,2.55V382.71z M418.99,394.48v-3.84l2.61,2.57L418.99,394.48z M422.66,392.11l-2.59-2.77h3.94
		L422.66,392.11z"/>
	<rect x="402.29" y="372.85" class="st0" width="3.35" height="3.34"/>
	<polygon class="st0" points="397.77,386.19 395.41,388.57 397.8,390.9 400.14,388.57 	"/>
	<polygon class="st0" points="435.4,388.46 437.79,390.82 440.16,388.46 437.79,386.11 	"/>
	<rect x="430.05" y="400.7" class="st0" width="3.34" height="3.33"/>
	<rect x="402.47" y="400.7" class="st0" width="3.36" height="3.33"/>
	<polygon class="st0" points="415.55,408.46 417.9,410.8 420.28,408.46 417.9,406.09 	"/>
	<rect x="387.13" y="317.7" class="st0" width="2.35" height="2.36"/>
	<path class="st0" d="M411.36,332.29l-1.5-3.62l1.5-3.41l-2.77,2.88h-4.5l1.63-2.52l-2.89-0.55l3.18-3.24h3.92l-3.59-1.31
		l-1.34-3.57v3.97l-3.12,3.25l-0.47-3.09l-2.61,1.76v-4.37l2.84-2.96l-3.37,1.68l-3.56-1.55l2.84,2.82v4.37l-2.64-1.57l-0.43,2.9
		l-3.2-3.25v-3.97l-1.23,3.57l-3.71,1.43h3.98l3.18,3.11l-3.27,0.71l2.02,2.36h-4.53l-2.82-2.88l1.36,3.52l-1.36,3.52l2.82-2.97
		h4.53l-2.02,2.61l3.27,0.52l-3.18,3.18h-3.98l3.71,1.26l1.19,3.56l0.04-3.91l3.06-3.08l0.56,3.18l2.64-1.97v4.52l-2.84,2.76
		l3.46-1.51l3.39,1.51l-2.76-2.76v-4.52l2.61,1.77l0.47-3.07l3.17,3.17l0.07,3.91l1.16-3.46l3.65-1.35h-3.92l-3.18-3.07l3.06-0.9
		l-1.81-2.36h4.5L411.36,332.29z M394.71,326.32l1.93,1.81h-2.58L394.71,326.32z M394.84,331.26l-0.78-1.94h2.58L394.84,331.26z
		 M397.56,332.87l-1.75-0.71l1.75-1.93V332.87z M397.56,327.2l-1.75-1.79l1.75-0.78V327.2z M401.57,326.32l0.68,1.81h-2.61
		L401.57,326.32z M398.87,324.64l1.84,0.78l-1.84,1.79V324.64z M398.87,332.93v-2.7l1.84,1.81L398.87,332.93z M401.45,331.26
		l-1.81-1.94h2.79L401.45,331.26z"/>
	<polygon class="st0" points="398.04,312.83 396.39,314.48 398.04,316.14 399.72,314.48 	"/>
	<polygon class="st0" points="412.11,327.04 410.44,328.69 412.11,330.35 413.78,328.69 	"/>
	<rect x="387.24" y="337.31" class="st0" width="2.38" height="2.34"/>
	<rect x="406.84" y="317.7" class="st0" width="2.35" height="2.36"/>
	<polygon class="st0" points="383.93,327.1 382.28,328.77 383.96,330.41 385.61,328.77 	"/>
	<polygon class="st0" points="396.45,342.76 398.11,344.42 399.77,342.76 398.11,341.1 	"/>
	<rect x="406.66" y="337.31" class="st0" width="2.37" height="2.34"/>
	<polygon class="st0" points="499.08,396.66 500.97,398.54 502.88,396.66 500.97,394.74 	"/>
	<polygon class="st0" points="515.02,380.6 516.94,382.48 518.83,380.6 516.94,378.7 	"/>
	<rect x="488.56" y="390.43" class="st0" width="2.69" height="2.66"/>
	<path class="st0" d="M516.09,384.67l-1.71-4.12l1.71-3.89l-3.17,3.28h-5.13l1.86-2.89l-3.31-0.61l3.65-3.71h4.45l-4.1-1.47
		l-1.53-4.09v4.53l-3.55,3.71l-0.56-3.53l-2.96,2.01v-5l3.24-3.38l-3.87,1.94l-4.03-1.79l3.23,3.22v5l-3.02-1.81l-0.49,3.33
		l-3.63-3.71v-4.53l-1.41,4.09l-4.22,1.61h4.54l3.61,3.57l-3.71,0.81l2.3,2.69h-5.15l-3.24-3.28l1.57,4.01l-1.57,4l3.24-3.37h5.15
		l-2.3,2.98l3.71,0.61l-3.61,3.62h-4.54l4.22,1.46l1.35,4.05l0.05-4.46l3.49-3.49l0.62,3.6l3.02-2.24v5.16l-3.23,3.14l3.93-1.73
		l3.86,1.73l-3.13-3.14v-5.16l2.96,2.03l0.56-3.52l3.62,3.63l0.07,4.46l1.32-3.96l4.17-1.55h-4.45l-3.65-3.48l3.52-1.04l-2.07-2.68
		h5.13L516.09,384.67z M497.1,377.89l2.2,2.05h-2.96L497.1,377.89z M497.23,383.53l-0.9-2.23h2.96L497.23,383.53z M500.32,385.35
		l-1.99-0.8l1.99-2.22V385.35z M500.32,378.9l-1.99-2.05l1.99-0.88V378.9z M504.88,377.89l0.79,2.05h-2.98L504.88,377.89z
		 M501.82,375.96l2.13,0.88l-2.13,2.05V375.96z M501.82,385.43v-3.1l2.13,2.07L501.82,385.43z M504.78,383.53l-2.08-2.23h3.16
		L504.78,383.53z"/>
	<rect x="510.71" y="390.43" class="st0" width="2.7" height="2.66"/>
	<rect x="510.9" y="368.03" class="st0" width="2.7" height="2.69"/>
	<polygon class="st0" points="500.89,366.27 502.8,364.35 500.89,362.47 498.98,364.35 	"/>
	<rect x="488.43" y="368.03" class="st0" width="2.67" height="2.69"/>
	<polygon class="st0" points="484.78,378.76 482.9,380.67 484.8,382.54 486.7,380.67 	"/>
</g>
</svg>
