<?xml version="1.0" encoding="utf-8"?>
<!-- Generator: Adobe Illustrator 24.0.1, SVG Export Plug-In . SVG Version: 6.00 Build 0)  -->
<svg version="1.1" id="13" xmlns="http://www.w3.org/2000/svg" xmlns:xlink="http://www.w3.org/1999/xlink" x="0px" y="0px"
	 viewBox="180 120 480 340" xml:space="preserve">
<style type="text/css">
	.st0{fill:#FFFFFF;}
</style>
<g>
	<path class="st0" d="M555.31,328.01c33.61-13.51,51.58-50.87,40.26-85.9c-10.78-33.43-44.47-52.97-78.1-47.13
		c13.15,8.39,23.57,21.23,28.73,37.24c6.17,19.14,3.56,38.98-5.52,55.26c-10.02-11.78-24.93-19.28-41.58-19.28
		c-10.13,0-19.84,2.74-28.28,7.89c-5.54-30.8-33.53-53.77-67.01-51.96c-31.56,1.56-56.59,24.57-60.89,54.13
		c-5.62-1.96-11.39-2.94-17.26-2.94c-30.14,0-54.65,24.52-54.65,54.65c0,0.56,0.01,1.12,0.07,1.71
		c-15.25,4.17-36.9,13.08-36.88,44.17c0.04,24.72,21.99,44.83,48.9,44.83l2.59-0.07c16.8-0.81,86.23,0.07,86.25,0.06l0.01-1.15
		c0.13,0.02,0.24,0.04,0.37,0.06l0.07,1.07l-0.04-1.07c9.23,1.25,30.62,1.28,80.35,1.38c0,0,37.35,0.64,64.47,0.64
		c10.26,0,19.08-0.09,23.95-0.34c25.7-1.28,47.06-25.88,45.74-52.66C585.95,349.99,573.33,334.29,555.31,328.01z M540.47,407.92
		c-17.59,0.87-87.48-0.32-87.62-0.32c-30.98-0.05-78.01-0.18-80.51-0.27l-0.15,3.04l-0.08-3.05c0,0-32.11-0.41-58.06-0.41
		c-12.47,0-23.55,0.1-29.03,0.37l-1.92,0.04c-19.57,0-35.51-14.13-35.55-31.48c-0.02-20.69,11.32-27.43,32.23-32.63l5.14-1.31
		l-0.21-8.38c-0.16-1.17-0.34-2.34-0.34-3.54c0-22.77,18.52-41.29,41.3-41.29c6.87,0,13.6,1.83,20.03,5.44l10.13,5.67l-0.2-11.61
		c-0.47-27.05,21-49.33,48.85-50.71l2.71-0.07c27.39,0,49.88,20.75,51.19,47.33c0.05,0.9-0.02,1.77-0.14,4.3l-0.55,17.06
		l11.99-12.17c7.85-7.97,18.29-12.37,29.41-12.37c13.85,0,26.07,6.92,33.56,17.42c-8.08,9.39-18.69,16.8-31.35,20.88
		c-3.16,1.05-6.33,1.74-9.53,2.3c13.8,8.82,30.6,12.62,47.51,10.15l-1.07,5.5l6.71,1.17c16.08,2.82,27.84,15.29,28.57,30.3
		C574.4,386.7,560.43,406.92,540.47,407.92z"/>
	<polygon class="st0" points="482.99,237.54 492.94,231.26 503.8,235.87 500.88,224.47 508.64,215.57 496.88,214.81 490.81,204.71 
		486.47,215.66 474.97,218.29 484.04,225.81 	"/>
	<polygon class="st0" points="446.55,201.65 454.89,196.36 463.97,200.24 461.54,190.67 468.04,183.21 458.18,182.58 453.09,174.11 
		449.45,183.3 439.81,185.48 447.43,191.8 	"/>
</g>
</svg>
