<?xml version="1.0" encoding="utf-8"?>
<!-- Generator: Adobe Illustrator 24.0.1, SVG Export Plug-In . SVG Version: 6.00 Build 0)  -->
<svg version="1.1" id="2" xmlns="http://www.w3.org/2000/svg" xmlns:xlink="http://www.w3.org/1999/xlink" x="0px" y="0px"
	 viewBox="180 120 480 340" xml:space="preserve">
<style type="text/css">
	.st0{fill:#FFFFFF;}
</style>
<g>
	<path class="st0" d="M469.52,230.88c1.52,1.73,4.18,1.92,5.93,0.38c1.73-1.52,1.91-4.18,0.37-5.93l-31.24-35.7
		c-1.54-1.76-4.19-1.91-5.94-0.4c-1.73,1.52-1.91,4.17-0.39,5.93L469.52,230.88z"/>
	<path class="st0" d="M523.1,210.24c2.31-0.02,4.18-1.9,4.16-4.22l-0.34-47.46c-0.01-2.34-1.91-4.19-4.23-4.17
		c-2.29,0.02-4.18,1.89-4.16,4.24l0.34,47.44C518.88,208.39,520.78,210.26,523.1,210.24z"/>
	<path class="st0" d="M631.1,334.99l-42-22.09c-2.06-1.08-4.6-0.29-5.68,1.76c-1.08,2.04-0.28,4.58,1.78,5.66l41.98,22.11
		c2.07,1.06,4.62,0.29,5.68-1.79C633.96,338.62,633.19,336.07,631.1,334.99z"/>
	<path class="st0" d="M640.97,255.25l-47.12,5.51c-2.31,0.28-3.95,2.37-3.68,4.67c0.25,2.31,2.34,3.95,4.65,3.67l47.13-5.5
		c2.31-0.28,3.96-2.34,3.68-4.67C645.37,256.66,643.29,254.99,640.97,255.25z"/>
	<path class="st0" d="M548.13,342.61c-0.77-2.18-3.18-3.35-5.36-2.55c-2.19,0.76-3.33,3.15-2.57,5.34l15.79,44.77
		c0.77,2.19,3.17,3.32,5.35,2.56c2.2-0.77,3.34-3.18,2.55-5.36L548.13,342.61z"/>
	<path class="st0" d="M571.64,226.51l29.23-37.4c1.43-1.83,1.09-4.47-0.72-5.89c-1.83-1.42-4.47-1.1-5.9,0.74l-29.22,37.41
		c-1.43,1.82-1.1,4.46,0.73,5.89C567.59,228.66,570.22,228.32,571.64,226.51z"/>
	<path class="st0" d="M522.89,216.09c-34.11,0-61.85,27.76-61.85,61.86c0,3.61,0.37,7.13,0.97,10.58c4.96,0.26,9.75,1.16,14.27,2.66
		c-1.2-4.22-1.88-8.65-1.88-13.24c0-26.75,21.76-48.5,48.5-48.5c26.75,0,48.52,21.76,48.52,48.5c0,26.74-21.77,48.5-48.52,48.5
		c-4.31,0-8.47-0.62-12.45-1.68c1.6,4.51,2.6,9.27,2.95,14.23c3.11,0.48,6.27,0.81,9.5,0.81c34.11,0,61.87-27.76,61.87-61.86
		C584.76,243.84,557,216.09,522.89,216.09z"/>
	<path class="st0" d="M513.41,347.37c0.12-1.47,0.17-2.97,0.17-4.47c0-1.29-0.11-2.56-0.2-3.83c-0.35-4.96-1.35-9.72-2.95-14.23
		c-5.58-15.81-18.23-28.28-34.16-33.59c-4.52-1.5-9.31-2.4-14.27-2.66c-0.96-0.05-1.91-0.14-2.88-0.14
		c-10.09,0-19.74,2.73-28.16,7.84c-1.57-8.72-5.05-16.77-9.9-23.83l29.36,2.39c2.33,0.2,4.35-1.54,4.54-3.86
		c0.19-2.28-1.53-4.33-3.84-4.51l-37.58-3.08c-12.5-12.47-30.18-19.9-49.34-18.86c-31.44,1.57-56.39,24.47-60.69,53.93
		c-5.58-1.95-11.32-2.92-17.17-2.92c-30.04,0-54.46,24.43-54.46,54.46c0,0.56,0.02,1.1,0.06,1.68
		c-15.2,4.16-36.76,13.04-36.73,44.01c0.03,24.65,21.9,44.7,48.74,44.7l2.58-0.06c16.71-0.83,85.91,0.06,85.91,0.04l0.02-1.14
		c0.12,0.02,0.24,0.03,0.36,0.05l0.05,1.09l-0.02-1.08c9.2,1.24,30.51,1.28,80.07,1.38c0,0,37.31,0.63,64.34,0.63
		c0.02,0,0.03,0,0.05,0c10.15,0,18.87-0.09,23.7-0.33c12.83-0.63,24.74-6.83,33.53-17.45c8.29-9.99,12.68-22.76,12.07-35.03
		C545.64,369.36,532.32,353.2,513.41,347.37z M524.24,415.03c-6.38,7.69-14.88,12.18-23.92,12.63c-4.7,0.24-13.17,0.31-23.03,0.31
		c-0.02,0-0.03,0-0.05,0c-26.94,0-64.1-0.63-64.21-0.63c-30.9-0.06-77.76-0.18-80.21-0.28l-0.17,3.02l-0.05-3.04
		c0,0-32-0.41-57.85-0.41c-12.42,0-23.44,0.09-28.9,0.37l-1.91,0.05c-19.49,0-35.37-14.07-35.39-31.37
		c-0.02-20.59,11.26-27.29,32.09-32.44l4.72-2l0.43-4.74l-0.23-2.91c-0.16-1.18-0.34-2.36-0.34-3.58
		c0-22.67,18.44-41.11,41.11-41.11c6.84,0,13.55,1.82,19.94,5.41l10.14,5.68l-0.2-11.62c-0.46-26.94,20.91-49.12,48.64-50.5
		l2.7-0.07c12.34,0,23.65,4.26,32.49,11.34c0.43,0.63,1.01,1.14,1.73,1.45c9.72,8.52,16.08,20.61,16.75,34.28
		c0.05,0.95,0,1.88-0.12,4.29l-0.65,17.22l12.07-12.29c7.81-7.94,18.2-12.31,29.29-12.31c2.39,0,4.7,0.31,6.99,0.71
		c16.82,2.91,30.16,16,33.34,32.73c0.47,2.49,0.77,5.04,0.77,7.67c0,2.81-0.3,5.55-0.84,8.2l-1.36,6.72l6.75,1.19
		c16.02,2.82,27.72,15.23,28.47,30.18C533.71,398.15,530.41,407.57,524.24,415.03z"/>
</g>
</svg>
