<?xml version="1.0" encoding="utf-8"?>
<!-- Generator: Adobe Illustrator 24.0.1, SVG Export Plug-In . SVG Version: 6.00 Build 0)  -->
<svg version="1.1" id="4" xmlns="http://www.w3.org/2000/svg" xmlns:xlink="http://www.w3.org/1999/xlink" x="0px" y="0px"
	 viewBox="180 120 480 340" xml:space="preserve">
<style type="text/css">
	.st0{fill:#FFFFFF;}
</style>
<g>
	<g>
		<path class="st0" d="M565.12,216.97c0.17-1.61,0.24-3.22,0.24-4.85c0-30.43-24.8-55.23-55.26-55.23c-10.41,0-20.38,2.9-29.04,8.28
			c-5.36-31.44-34.16-54.97-67.89-53.12c-32.11,1.6-57.55,25.09-61.7,55.23c-5.78-2.07-11.79-3.11-17.88-3.11
			c-30.44,0-55.24,24.78-55.24,55.22c0,0.67,0.04,1.32,0.09,2.02c-15.41,4.21-37.57,13.11-37.54,44.69
			c0.04,23.43,19.51,43.55,46.06,44.79l8.12-12.52c-0.95,0-2.05,0.04-2.82,0.07l-1.96,0.06c-20.12,0-36.54-14.56-36.54-32.44
			c-0.03-21.29,11.61-28.21,33.08-33.55l4.83-1.84l0.14-4.89l-0.24-2.6c-0.17-1.25-0.34-2.51-0.34-3.8
			c0-23.35,19.02-42.36,42.37-42.36c7.07,0,13.99,1.87,20.57,5.58l9.78,5.47l-0.21-11.18c-0.47-27.75,21.53-50.57,50.08-51.98
			l2.79-0.08c28.06,0,51.1,21.27,52.44,48.46c0.07,0.99,0,1.95-0.12,4.45l-0.58,16.52l11.58-11.82
			c8.05-8.16,18.77-12.69,30.18-12.69c23.37,0,42.4,19.02,42.4,42.38c0,2.92-0.31,5.74-0.85,8.48l-1.31,6.46l6.49,1.14
			c16.55,2.89,28.65,15.71,29.41,31.18c0.77,15.53-9.91,33.15-26.15,38.27l4.29,11.94c20.47-6.81,35.84-27.96,34.68-50.84
			C598.1,239.25,584.46,222.81,565.12,216.97z"/>
	</g>
	<g>
		<path class="st0" d="M329.3,444.26c0,1.53-1.77,2.81-3.96,2.81l0,0c-2.2,0-3.97-1.28-3.97-2.81V290.01c0-1.55,1.77-2.8,3.97-2.8
			l0,0c2.19,0,3.96,1.25,3.96,2.8V444.26z"/>
	</g>
	<g>
		<path class="st0" d="M365.51,467.95c0,1.57-1.78,2.81-3.95,2.81l0,0c-2.2,0-3.97-1.25-3.97-2.81V313.71
			c0-1.57,1.77-2.83,3.97-2.83l0,0c2.17,0,3.95,1.26,3.95,2.83V467.95z"/>
	</g>
	<g>
		<path class="st0" d="M420,434.26c0,1.55-1.77,2.81-3.94,2.81l0,0c-2.19,0-3.96-1.26-3.96-2.81V280.03c0-1.55,1.77-2.8,3.96-2.8
			l0,0c2.17,0,3.94,1.25,3.94,2.8V434.26z"/>
	</g>
	<g>
		<path class="st0" d="M463.39,482.69c0,1.53-1.78,2.81-3.95,2.81l0,0c-2.2,0-3.97-1.28-3.97-2.81V328.44c0-1.55,1.77-2.8,3.97-2.8
			l0,0c2.17,0,3.95,1.25,3.95,2.8V482.69z"/>
	</g>
	<g>
		<path class="st0" d="M504.44,434.26c0,1.55-1.79,2.81-3.96,2.81l0,0c-2.2,0-3.97-1.26-3.97-2.81V280.03c0-1.55,1.78-2.8,3.97-2.8
			l0,0c2.17,0,3.96,1.25,3.96,2.8V434.26z"/>
	</g>
</g>
</svg>
