<?xml version="1.0" encoding="utf-8"?>
<svg version="1.1" xmlns="http://www.w3.org/2000/svg" xmlns:xlink="http://www.w3.org/1999/xlink" x="0px" y="0px"
	 viewBox="0 0 841.89 595.28" style="enable-background:new 0 0 841.89 595.28;" xml:space="preserve">
<style type="text/css">
	.st0{fill:#A5A5A5;}
</style>
<path class="st0" d="M420.54,116.79l48.82,98.92l10.79,21.87l24.14,3.51l109.16,15.86l-78.99,77L517,350.97l4.12,24.04l18.65,108.72
	l-97.64-51.33l-21.59-11.35l-21.59,11.35l-97.64,51.33l18.65-108.72l4.12-24.04l-17.47-17.02l-78.99-77l109.16-15.86l24.14-3.51
	l10.79-21.87L420.54,116.79 M420.54,56.11c-12.5,0-25,6.51-31.43,19.54l-58.99,119.52l-131.9,19.17
	c-28.75,4.18-40.23,39.51-19.43,59.79l95.44,93.04L251.7,498.53c-3.89,22.66,14.12,41.06,34.54,41.06c5.39,0,10.95-1.28,16.32-4.1
	l117.98-62.02l117.98,62.02c5.37,2.82,10.93,4.1,16.32,4.1c20.42,0,38.43-18.4,34.54-41.06l-22.53-131.37l95.44-93.04
	c20.8-20.28,9.32-55.61-19.43-59.79l-131.9-19.17L451.97,75.65C445.54,62.62,433.04,56.11,420.54,56.11L420.54,56.11z"/>
</svg>
