<?xml version="1.0" encoding="utf-8"?>
<!-- Generator: Adobe Illustrator 24.0.1, SVG Export Plug-In . SVG Version: 6.00 Build 0)  -->
<svg version="1.1" id="8" xmlns="http://www.w3.org/2000/svg" xmlns:xlink="http://www.w3.org/1999/xlink" x="0px" y="0px"
	 viewBox="180 120 480 340" xml:space="preserve">
<style type="text/css">
	.st0{fill:#FFFFFF;}
</style>
<path class="st0" d="M601.18,274.33c0.05-0.87,0.08-1.74,0.08-2.64c0-24.77-20.16-44.94-44.95-44.94c-7.67,0-15.04,1.92-21.59,5.53
	c-5.14-23.42-26.41-40.76-51.74-40.76l-2.75,0.07c-22.34,1.12-40.49,15.46-47.31,34.95c-12.54-12.97-30.59-20.79-50.38-19.83
	c-31.56,1.57-56.6,24.56-60.89,54.13c-5.61-1.96-11.39-2.94-17.27-2.94c-30.13,0-54.65,24.51-54.65,54.63c0,0.56,0.02,1.12,0.08,1.7
	c-15.25,4.18-36.91,13.07-36.86,44.17c0.02,24.73,21.95,44.85,48.89,44.85l2.59-0.06c16.75-0.86,86.2,0.05,86.23,0.05l0.02-1.14
	c0.12,0.02,0.24,0.04,0.36,0.05l0.06,1.08l-0.02-1.08c9.22,1.25,30.6,1.28,80.35,1.38c0,0,37.39,0.63,64.53,0.63
	c10.23,0,19.02-0.09,23.88-0.34c25.48-1.27,46.68-25.47,45.74-51.98c0,0,0-0.01,0-0.01c1.63,0.01,3.27,0.01,4.82,0.01
	c8.37,0,15.57-0.08,19.52-0.28c10.67-0.53,20.54-5.66,27.81-14.44c6.85-8.26,10.48-18.82,9.96-28.96
	C626.92,292.61,616.33,279.42,601.18,274.33z M607.44,328.61c-4.87,5.87-11.33,9.3-18.2,9.63c-4.97,0.25-15.18,0.3-26.29,0.25
	c-4.85-13.42-16.08-24.09-30.69-28.59c0.12-1.49,0.18-2.98,0.18-4.5c0-30.12-24.51-54.63-54.65-54.63
	c-10.13,0-19.83,2.75-28.27,7.89c-0.9-5-2.45-9.75-4.47-14.26c-0.47-1.06-1.12-2.01-1.66-3.03c1.04-19.62,16.93-35.43,37.47-36.45
	l2.09-0.05c21.14,0,38.49,16,39.51,36.39c0.05,0.76-0.01,1.5-0.09,3.34l-0.7,17.26l12.11-12.3c6.01-6.1,14-9.46,22.5-9.46
	c17.43,0,31.6,14.17,31.6,31.58c0,2.17-0.22,4.28-0.63,6.32l-1.35,6.7l6.74,1.19c12.22,2.15,21.14,11.57,21.69,22.93
	C614.69,315.69,612.17,322.9,607.44,328.61z"/>
</svg>
