<?xml version="1.0" encoding="utf-8"?>
<!-- Generator: Adobe Illustrator 24.0.1, SVG Export Plug-In . SVG Version: 6.00 Build 0)  -->
<svg version="1.1" id="10" xmlns="http://www.w3.org/2000/svg" xmlns:xlink="http://www.w3.org/1999/xlink" x="0px" y="0px"
	 viewBox="180 120 480 340" xml:space="preserve">
<style type="text/css">
	.st0{fill:#FFFFFF;}
</style>
<g>
	<g>
		<path class="st0" d="M565.14,234.25c0.14-1.63,0.21-3.24,0.21-4.85c0-30.45-24.78-55.22-55.23-55.22
			c-10.42,0-20.41,2.88-29.04,8.27c-5.38-31.44-34.19-54.97-67.92-53.11c-32.09,1.59-57.54,25.08-61.69,55.22
			c-5.8-2.06-11.79-3.11-17.88-3.11c-30.45,0-55.23,24.78-55.23,55.23c0,0.66,0.01,1.31,0.08,2.01
			c-15.42,4.21-37.58,13.12-37.53,44.67c0.03,23.44,19.51,43.57,46.05,44.81l8.13-12.53c-0.97,0.02-2.07,0.06-2.81,0.09l-1.98,0.05
			c-20.13,0-36.53-14.56-36.54-32.42c-0.03-21.32,11.61-28.23,33.08-33.56l4.83-1.84l0.14-4.88l-0.23-2.61
			c-0.18-1.25-0.36-2.51-0.36-3.79c0-23.36,19.02-42.37,42.38-42.37c7.07,0,13.99,1.88,20.57,5.57l9.77,5.47l-0.2-11.18
			c-0.47-27.73,21.52-50.57,50.06-51.99l2.78-0.06c28.08,0,51.11,21.26,52.47,48.47c0.04,0.96-0.02,1.94-0.14,4.41l-0.58,16.52
			l11.59-11.79c8.04-8.19,18.76-12.69,30.19-12.69c23.37,0,42.39,19.01,42.39,42.37c0,2.92-0.32,5.72-0.87,8.47l-1.31,6.45
			l6.49,1.15c16.56,2.89,28.64,15.71,29.4,31.17c0.77,15.53-9.91,33.16-26.15,38.27l4.3,11.95c20.47-6.8,35.83-27.96,34.69-50.85
			C598.11,256.52,584.47,240.07,565.14,234.25z"/>
	</g>
	<g>
		<path class="st0" d="M313.59,353.88h3.72v-3.66h-3.72V353.88z M328.1,358.83l2.63,2.61l2.64-2.61l-2.64-2.64L328.1,358.83z
			 M308.38,334.1l-2.61,2.65l2.64,2.58l2.6-2.58L308.38,334.1z M344.19,353.88h3.72v-3.66h-3.72V353.88z M317.1,319.29h-3.69v3.7
			h3.69V319.29z M348.19,319.29h-3.72v3.7h3.72V319.29z M333.27,314.21l-2.64-2.62l-2.63,2.62l2.63,2.62L333.27,314.21z
			 M351.62,342.27l-2.37-5.69l2.37-5.4l-4.36,4.54h-7.1l2.57-3.97l-4.56-0.86l5.01-5.09h6.18l-5.65-2.05l-2.14-5.66v6.27l-4.92,5.13
			l-0.74-4.87l-4.1,2.78v-6.91l4.48-4.66l-5.33,2.66l-5.59-2.45l4.48,4.45v6.91l-4.16-2.49l-0.68,4.59l-5.03-5.13v-6.27l-1.96,5.66
			l-5.82,2.24h6.26l5.01,4.91l-5.15,1.13l3.18,3.71h-7.11l-4.45-4.54l2.14,5.57l-2.14,5.52l4.45-4.67h7.11l-3.18,4.13l5.15,0.82
			l-5.01,5h-6.26l5.82,2.02l1.88,5.58l0.08-6.16l4.83-4.84l0.88,4.98l4.16-3.09v7.12l-4.48,4.36l5.45-2.4l5.35,2.4l-4.36-4.36v-7.12
			l4.1,2.8l0.74-4.87l5.01,5.02l0.11,6.16l1.81-5.46l5.79-2.15h-6.18l-5.01-4.82l4.85-1.41l-2.86-3.72h7.1L351.62,342.27z
			 M325.36,332.89l3.05,2.83h-4.09L325.36,332.89z M325.58,340.68l-1.25-3.08h4.09L325.58,340.68z M329.85,343.21l-2.77-1.14
			l2.77-3.02V343.21z M329.85,334.29l-2.77-2.84l2.77-1.22V334.29z M336.17,332.89l1.06,2.83h-4.09L336.17,332.89z M331.91,330.23
			l2.93,1.22l-2.93,2.84V330.23z M331.91,343.3v-4.26l2.93,2.83L331.91,343.3z M336,340.68l-2.86-3.08h4.36L336,340.68z
			 M352.79,334.02l-2.63,2.6l2.63,2.62l2.64-2.62L352.79,334.02z"/>
	</g>
	<g>
		<path class="st0" d="M462.87,334.13h4.83v-4.76h-4.83V334.13z M481.7,340.54l3.4,3.35l3.43-3.35l-3.43-3.43L481.7,340.54z
			 M456.11,308.46l-3.39,3.43l3.43,3.34l3.36-3.34L456.11,308.46z M502.56,334.13h4.83v-4.76h-4.83V334.13z M467.43,289.24h-4.79
			v4.82h4.79V289.24z M507.74,289.24h-4.82v4.82h4.82V289.24z M488.38,282.66l-3.42-3.38l-3.4,3.38l3.4,3.41L488.38,282.66z
			 M512.19,319.06l-3.08-7.4l3.08-6.98l-5.65,5.9h-9.21l3.33-5.18l-5.91-1.11l6.52-6.6h8.01l-7.34-2.67l-2.78-7.33v8.12l-6.37,6.64
			l-0.97-6.31l-5.3,3.62v-8.97l5.79-6.05l-6.91,3.46l-7.23-3.18l5.79,5.77v8.97l-5.38-3.26l-0.9,5.95l-6.52-6.64v-8.12l-2.54,7.33
			l-7.55,2.91h8.11l6.5,6.36l-6.67,1.47l4.1,4.82h-9.21l-5.79-5.9l2.8,7.21l-2.8,7.16l5.79-6.06h9.21l-4.1,5.35l6.67,1.06l-6.5,6.5
			h-8.11l7.55,2.61l2.43,7.25l0.11-8l6.27-6.27l1.14,6.48l5.38-4.01v9.21l-5.79,5.66l7.05-3.11l6.96,3.11l-5.65-5.66v-9.21l5.3,3.61
			l0.97-6.29l6.49,6.48l0.14,8l2.36-7.07l7.51-2.8h-8.01l-6.52-6.24l6.27-1.85l-3.69-4.82h9.21L512.19,319.06z M478.16,306.9
			l3.94,3.69h-5.29L478.16,306.9z M478.42,316.98L476.8,313h5.29L478.42,316.98z M483.95,320.29l-3.57-1.48l3.57-3.94V320.29z
			 M483.95,308.71l-3.57-3.69l3.57-1.58V308.71z M492.17,306.9l1.37,3.69h-5.32L492.17,306.9z M486.65,303.45l3.78,1.58l-3.78,3.69
			V303.45z M486.65,320.4v-5.53l3.78,3.69L486.65,320.4z M491.94,316.98l-3.72-3.97h5.67L491.94,316.98z M513.71,308.35l-3.42,3.38
			l3.42,3.39l3.42-3.39L513.71,308.35z"/>
	</g>
	<g>
		<path class="st0" d="M347.2,458.47h4.85v-4.77h-4.85V458.47z M366.02,464.86l3.42,3.37l3.42-3.37l-3.42-3.42L366.02,464.86z
			 M340.44,432.79l-3.39,3.43l3.42,3.35l3.39-3.35L340.44,432.79z M386.89,458.47h4.82v-4.77h-4.82V458.47z M351.76,413.57h-4.79
			v4.82h4.79V413.57z M392.07,413.57h-4.82v4.82h4.82V413.57z M372.71,406.99l-3.42-3.38l-3.4,3.38l3.4,3.4L372.71,406.99z
			 M396.53,443.39l-3.1-7.39l3.1-6.96l-5.67,5.88h-9.21l3.33-5.18l-5.91-1.1l6.52-6.62h7.99l-7.34-2.66l-2.77-7.34v8.13l-6.37,6.65
			l-0.97-6.32l-5.32,3.62v-8.96l5.8-6.05l-6.91,3.45l-7.23-3.18l5.79,5.77v8.96l-5.38-3.27l-0.9,5.96l-6.52-6.65v-8.13l-2.54,7.34
			l-7.55,2.92h8.13l6.5,6.36l-6.69,1.47l4.1,4.82h-9.21l-5.79-5.88l2.8,7.19l-2.8,7.16l5.79-6.06h9.21l-4.1,5.37l6.69,1.04l-6.5,6.5
			h-8.13l7.55,2.61l2.43,7.25l0.11-8.02l6.27-6.26l1.14,6.48l5.38-4.01v9.23l-5.79,5.64l7.07-3.1l6.94,3.1l-5.67-5.64v-9.23
			l5.32,3.62l0.97-6.31l6.49,6.48l0.14,8.02l2.36-7.08l7.49-2.78h-7.99l-6.52-6.25l6.27-1.85l-3.69-4.82h9.21L396.53,443.39z
			 M362.48,431.22l3.93,3.69h-5.29L362.48,431.22z M362.74,441.31l-1.61-3.98h5.29L362.74,441.31z M368.27,444.62l-3.57-1.48
			l3.57-3.93V444.62z M368.27,433.03l-3.57-3.68l3.57-1.57V433.03z M376.49,431.22l1.37,3.69h-5.32L376.49,431.22z M370.98,427.78
			l3.78,1.57l-3.78,3.68V427.78z M370.98,444.73v-5.52l3.78,3.68L370.98,444.73z M376.25,441.31l-3.71-3.98h5.67L376.25,441.31z
			 M398.04,432.68l-3.42,3.37l3.42,3.4l3.42-3.4L398.04,432.68z"/>
	</g>
	<g>
		<path class="st0" d="M423.25,396.84h3.36v-3.33h-3.36V396.84z M436.33,401.24l2.37,2.36l2.37-2.36l-2.37-2.36L436.33,401.24z
			 M418.55,378.98l-2.36,2.4l2.37,2.3l2.34-2.3L418.55,378.98z M450.82,396.84h3.36v-3.33h-3.36V396.84z M426.42,365.66h-3.34v3.34
			h3.34V365.66z M454.42,365.66h-3.36v3.34h3.36V365.66z M440.96,361.07l-2.37-2.36l-2.36,2.36l2.36,2.36L440.96,361.07z
			 M457.51,386.35l-2.14-5.14l2.14-4.84l-3.92,4.07h-6.4l2.31-3.58l-4.1-0.78l4.53-4.59h5.56l-5.11-1.85l-1.93-5.08v5.64l-4.42,4.6
			l-0.68-4.38l-3.68,2.49v-6.21l4.03-4.19l-4.8,2.39l-5.03-2.2l4.01,4.01v6.21l-3.74-2.25l-0.61,4.13l-4.53-4.6v-5.64l-1.76,5.08
			l-5.26,2.02h5.65l4.51,4.42l-4.63,1.02l2.84,3.33h-6.4l-4.01-4.07l1.93,5.01l-1.93,4.97l4.01-4.2h6.4l-2.84,3.71l4.63,0.74
			l-4.51,4.51h-5.65l5.26,1.81l1.69,5.04l0.08-5.56l4.35-4.35l0.79,4.5l3.74-2.8v6.41l-4.01,3.92l4.91-2.14l4.82,2.14l-3.92-3.92
			v-6.41l3.68,2.52l0.68-4.38l4.5,4.5l0.09,5.56l1.64-4.91l5.23-1.94h-5.56l-4.53-4.34l4.36-1.28l-2.57-3.33h6.4L457.51,386.35z
			 M433.87,377.91l2.74,2.55h-3.68L433.87,377.91z M434.05,384.9l-1.13-2.75h3.68L434.05,384.9z M437.88,387.19l-2.48-1.02
			l2.48-2.73V387.19z M437.88,379.15l-2.48-2.55l2.48-1.1V379.15z M443.59,377.91l0.96,2.55h-3.69L443.59,377.91z M439.76,375.51
			l2.63,1.1l-2.63,2.55V375.51z M439.76,387.3v-3.85l2.63,2.56L439.76,387.3z M443.44,384.9l-2.58-2.75h3.93L443.44,384.9z
			 M458.57,378.92l-2.37,2.34l2.37,2.37l2.37-2.37L458.57,378.92z"/>
	</g>
	<g>
		<path class="st0" d="M390.23,331.73h2.37v-2.34h-2.37V331.73z M399.44,334.85l1.67,1.66l1.67-1.66l-1.67-1.66L399.44,334.85z
			 M386.93,319.19l-1.66,1.68l1.67,1.63l1.64-1.63L386.93,319.19z M409.65,331.73H412v-2.34h-2.36V331.73z M392.46,309.8h-2.34v2.35
			h2.34V309.8z M412.17,309.8h-2.36v2.35h2.36V309.8z M402.72,306.57l-1.69-1.65l-1.66,1.65l1.66,1.66L402.72,306.57z
			 M414.36,324.37l-1.5-3.62l1.5-3.41l-2.78,2.89h-4.48l1.61-2.53l-2.89-0.55l3.19-3.23h3.92l-3.6-1.31l-1.35-3.56V313l-3.11,3.25
			l-0.47-3.09l-2.6,1.76v-4.37l2.84-2.96l-3.39,1.7l-3.54-1.56l2.84,2.83v4.37l-2.64-1.57l-0.43,2.9l-3.19-3.25v-3.96l-1.25,3.56
			l-3.69,1.44h3.98l3.18,3.1l-3.27,0.72l2.01,2.36h-4.5l-2.84-2.89l1.37,3.52l-1.37,3.5l2.84-2.97h4.5l-2.01,2.62l3.27,0.52
			l-3.18,3.18h-3.98l3.69,1.26l1.2,3.55l0.05-3.91l3.07-3.05l0.55,3.16l2.64-1.96v4.52l-2.84,2.75l3.45-1.52l3.4,1.52l-2.77-2.75
			v-4.52l2.6,1.77l0.47-3.09l3.18,3.17l0.08,3.91l1.14-3.45l3.68-1.36h-3.92l-3.19-3.05l3.08-0.92l-1.81-2.35h4.48L414.36,324.37z
			 M397.7,318.42l1.93,1.81h-2.58L397.7,318.42z M397.84,323.35l-0.79-1.95h2.58L397.84,323.35z M400.55,324.96l-1.75-0.71
			l1.75-1.92V324.96z M400.55,319.29l-1.75-1.79l1.75-0.77V319.29z M404.56,318.42l0.67,1.81h-2.6L404.56,318.42z M401.85,316.73
			l1.85,0.77l-1.85,1.79V316.73z M401.85,325.02v-2.69l1.85,1.79L401.85,325.02z M404.45,323.35l-1.82-1.95h2.78L404.45,323.35z
			 M415.1,319.14l-1.67,1.63l1.67,1.66l1.66-1.66L415.1,319.14z"/>
	</g>
	<g>
		<path class="st0" d="M490.6,401.32h2.69v-2.66h-2.69V401.32z M501.12,404.89l1.9,1.88l1.9-1.88l-1.9-1.91L501.12,404.89z
			 M486.82,386.98l-1.88,1.92l1.9,1.85l1.9-1.85L486.82,386.98z M512.74,401.32h2.71v-2.66h-2.71V401.32z M493.14,376.26h-2.67v2.67
			h2.67V376.26z M515.64,376.26h-2.69v2.67h2.69V376.26z M504.82,372.57l-1.9-1.88l-1.9,1.88l1.9,1.91L504.82,372.57z M518.13,392.9
			l-1.73-4.13l1.73-3.9l-3.16,3.29h-5.15l1.87-2.88l-3.31-0.62l3.63-3.71h4.48l-4.1-1.47l-1.55-4.09v4.53l-3.54,3.72l-0.55-3.54
			l-2.96,2.02v-5l3.22-3.39l-3.84,1.94l-4.04-1.78l3.24,3.22v5l-3.01-1.81l-0.5,3.33l-3.65-3.72v-4.53l-1.4,4.09l-4.22,1.62h4.53
			l3.63,3.56l-3.72,0.82l2.28,2.68h-5.14l-3.22-3.29l1.55,4.03l-1.55,4l3.22-3.37h5.14l-2.28,2.98l3.72,0.59l-3.63,3.61h-4.53
			l4.22,1.47l1.35,4.06l0.05-4.47l3.51-3.49l0.64,3.62l3.01-2.25v5.15l-3.24,3.15l3.95-1.73l3.86,1.73l-3.15-3.15v-5.15l2.96,2.04
			l0.55-3.55l3.62,3.64l0.08,4.47l1.31-3.96l4.19-1.57h-4.48l-3.63-3.49l3.51-1.01l-2.07-2.68h5.15L518.13,392.9z M499.13,386.11
			l2.2,2.06h-2.96L499.13,386.11z M499.26,391.75l-0.9-2.22h2.96L499.26,391.75z M502.36,393.59l-2.01-0.82l2.01-2.2V393.59z
			 M502.36,387.13l-2.01-2.07l2.01-0.87V387.13z M506.93,386.11l0.77,2.06h-2.98L506.93,386.11z M503.87,384.19l2.11,0.87
			l-2.11,2.07V384.19z M503.87,393.66v-3.1l2.11,2.06L503.87,393.66z M506.81,391.75l-2.08-2.22h3.18L506.81,391.75z M518.97,386.92
			l-1.91,1.88l1.91,1.91l1.9-1.91L518.97,386.92z"/>
	</g>
</g>
</svg>
